<?xml version="1.0" encoding="UTF-8"?>
<svg id="Calque_1" data-name="Calque 1" xmlns="http://www.w3.org/2000/svg" xmlns:xlink="http://www.w3.org/1999/xlink" viewBox="0 0 316.43 49.27">
  <defs>
    <clipPath id="clippath">
      <path d="M106.08,4.74c0,2.13,1.73,3.86,3.87,3.86s3.86-1.73,3.86-3.86-1.73-3.86-3.86-3.86-3.87,1.73-3.87,3.86" fill="none"/>
    </clipPath>
    <linearGradient id="Dégradé_sans_nom_2" data-name="Dégradé sans nom 2" x1="-283.13" y1="382.04" x2="-282.78" y2="382.04" gradientTransform="translate(6372.7 8460.46) scale(22.13 -22.13)" gradientUnits="userSpaceOnUse">
      <stop offset="0" stop-color="#9f358b"/>
      <stop offset=".52" stop-color="#9f358b"/>
      <stop offset="1" stop-color="#9f358b"/>
    </linearGradient>
    <clipPath id="clippath-1">
      <rect y=".83" width="168.47" height="47.69" fill="none"/>
    </clipPath>
    <clipPath id="clippath-2">
      <polygon points="215.11 1.02 215.11 31.01 215.11 35.45 215.11 35.45 192.64 35.45 192.64 45.94 223.41 45.94 225.95 43.4 225.95 1.02 215.11 1.02" fill="none"/>
    </clipPath>
    <linearGradient id="Dégradé_sans_nom_9" data-name="Dégradé sans nom 9" x1="-286.44" y1="377.96" x2="-286.09" y2="377.96" gradientTransform="translate(-54971.36 41813.28) rotate(90) scale(145.99 -145.99)" gradientUnits="userSpaceOnUse">
      <stop offset="0" stop-color="#445055"/>
      <stop offset=".29" stop-color="#3a7681"/>
      <stop offset=".6" stop-color="#3099aa"/>
      <stop offset=".85" stop-color="#2bafc4"/>
      <stop offset="1" stop-color="#29b8ce"/>
    </linearGradient>
    <clipPath id="clippath-3">
      <polygon points="227.17 1.02 227.17 42.18 227.17 45.94 227.17 45.94 237.84 45.94 237.85 45.94 237.85 42.18 237.85 1.02 227.17 1.02" fill="none"/>
    </clipPath>
    <linearGradient id="Dégradé_sans_nom_9-2" data-name="Dégradé sans nom 9" x1="-286.44" y1="377.67" x2="-286.09" y2="377.67" gradientTransform="translate(-54904.89 41812.97) rotate(90) scale(145.99 -145.99)" xlink:href="#Dégradé_sans_nom_9"/>
    <clipPath id="clippath-4">
      <polygon points="239.07 1.02 239.07 1.02 239.07 43.4 241.61 45.94 271.99 45.94 272 45.94 272 35.45 249.93 35.45 249.93 34.23 249.93 31.01 249.93 1.02 239.07 1.02" fill="none"/>
    </clipPath>
    <linearGradient id="Dégradé_sans_nom_9-3" data-name="Dégradé sans nom 9" x1="-286.44" y1="377.38" x2="-286.09" y2="377.38" gradientTransform="translate(-54839.61 41812.64) rotate(90) scale(145.99 -145.99)" xlink:href="#Dégradé_sans_nom_9"/>
    <clipPath id="clippath-5">
      <polygon points="203.14 1.02 203.14 23.6 192.64 23.6 192.64 34.23 211.89 34.23 213.89 32.23 213.89 1.02 203.14 1.02" fill="none"/>
    </clipPath>
    <linearGradient id="Dégradé_sans_nom_9-4" data-name="Dégradé sans nom 9" x1="-286.61" y1="377.89" x2="-286.26" y2="377.89" gradientTransform="translate(-44831.06 34154.96) rotate(90) scale(119.17 -119.17)" xlink:href="#Dégradé_sans_nom_9"/>
    <clipPath id="clippath-6">
      <polygon points="251.15 1.02 251.15 32.23 253.15 34.23 272 34.23 272 23.6 261.87 23.6 261.87 1.02 251.15 1.02" fill="none"/>
    </clipPath>
    <linearGradient id="Dégradé_sans_nom_9-5" data-name="Dégradé sans nom 9" x1="-286.33" y1="377.68" x2="-285.98" y2="377.68" gradientTransform="translate(-71772.03 54597.22) rotate(90) scale(190.73 -190.73)" xlink:href="#Dégradé_sans_nom_9"/>
    <linearGradient id="Dégradé_sans_nom_13" data-name="Dégradé sans nom 13" x1="-285.17" y1="379.02" x2="-285.02" y2="379.02" gradientTransform="translate(133945.27 -100594.99) rotate(-90) scale(352.93 -352.93)" gradientUnits="userSpaceOnUse">
      <stop offset="0" stop-color="#29b8ce"/>
      <stop offset=".2" stop-color="#29b8ce"/>
      <stop offset="1" stop-color="#9f358b"/>
    </linearGradient>
  </defs>
  <path d="M20.3,11.81l7.19,19.74H12.86l7.44-19.74ZM16.59,1.45L0,45.76H7.61l2.62-6.9H30.11l2.62,6.9h7.87L24.18,1.45h-7.59Z" fill="#445156"/>
  <polygon points="103.95 1.45 86.15 1.45 86.15 8.36 96.5 8.36 96.5 45.76 103.95 45.76 103.95 1.45" fill="#445156"/>
  <polygon points="139.01 1.45 121.21 1.45 121.21 45.76 139.01 45.76 139.01 38.86 128.52 38.86 128.52 26.85 139.01 26.85 139.01 20.09 128.52 20.09 128.52 8.22 139.01 8.22 139.01 1.45" fill="#445156"/>
  <polygon points="163.83 1.45 146.02 1.45 146.02 45.76 163.83 45.76 163.83 38.86 153.34 38.86 153.34 26.85 163.83 26.85 163.83 20.09 153.34 20.09 153.34 8.22 163.83 8.22 163.83 1.45" fill="#445156"/>
  <g clip-path="url(#clippath)">
    <rect x="106.08" y=".87" width="7.73" height="7.73" fill="url(#Dégradé_sans_nom_2)"/>
  </g>
  <g clip-path="url(#clippath-1)">
    <path d="M79.07,24.36c-.31,8.47-7.28,15.28-15.83,15.28s-15.86-7.11-15.86-15.86,7.11-15.86,15.86-15.86V.87c-12.65,0-22.91,10.26-22.91,22.91s10.26,22.91,22.91,22.91,22.58-9.94,22.89-22.32h-7.06Z" fill="#445156"/>
    <path d="M183.63,1.51h2.37l2.68,9.78h-1.07l-.71-2.52h-4.18l-.71,2.52h-1.07l2.69-9.78Zm-.66,6.29h3.7l-1.48-5.36h-.74l-1.48,5.36Z" fill="#445156"/>
    <path d="M194.53,4.29l-.04,.86s-1.13-.13-1.67-.13c-1.63,0-2.06,.71-2.06,2.6,0,2.09,.32,2.85,2.08,2.85,.54,0,1.67-.13,1.67-.13l.04,.88s-1.31,.2-1.96,.2c-2.25,0-2.91-1.03-2.91-3.8,0-2.56,.83-3.55,2.94-3.55,.65,0,1.92,.21,1.92,.21" fill="#445156"/>
    <path d="M197.54,5.14v3.38c0,1.54,.1,1.98,1.02,1.98,.4,0,1.26-.08,1.26-.08l.07,.88s-.95,.16-1.44,.16c-1.46,0-1.95-.55-1.95-2.59v-3.72h-1v-.92h1V2.06h1.05v2.16h2.25v.92h-2.25Z" fill="#445156"/>
    <path d="M201.08,1.4h1.06v1.23h-1.06V1.4Zm0,2.83h1.06v7.07h-1.06V4.22Z" fill="#445156"/>
    <path d="M209.91,7.67c0,2.57-.64,3.76-3.02,3.76s-3.02-1.19-3.02-3.76c0-2.43,.79-3.59,3.02-3.59s3.02,1.16,3.02,3.59m-1.09,0c0-1.96-.42-2.67-1.94-2.67s-1.94,.71-1.94,2.67,.27,2.84,1.94,2.84,1.94-.83,1.94-2.84" fill="#445156"/>
    <path d="M211.63,11.29V4.22h1.05v.49s1.14-.64,2.19-.64c1.95,0,2.39,.96,2.39,3.48v3.73h-1.05v-3.7c0-1.87-.21-2.56-1.53-2.56-1.02,0-1.99,.52-1.99,.52v5.74h-1.06Z" fill="#445156"/>
    <path d="M227.76,11.29h-1.05v-.48s-1.09,.62-2.15,.62c-1.39,0-2.54-.57-2.54-3.62,0-2.49,.81-3.73,2.95-3.73,.61,0,1.53,.14,1.74,.18V1.14h1.05V11.29Zm-1.05-1.33V5.17c-.23-.04-1.1-.17-1.68-.17-1.48,0-1.92,.97-1.92,2.81,0,2.29,.75,2.67,1.58,2.67,1,0,2.02-.52,2.02-.52" fill="#445156"/>
    <path d="M235.02,10.37l.03,.83s-1.61,.23-2.76,.23c-2.11,0-2.8-1.23-2.8-3.63,0-2.69,1.16-3.72,2.95-3.72s2.84,.99,2.84,3.31l-.06,.81h-4.66c0,1.51,.47,2.3,1.85,2.3,1.06,0,2.6-.13,2.6-.13m-.79-3.02c0-1.75-.54-2.37-1.78-2.37s-1.88,.66-1.89,2.37h3.67Z" fill="#445156"/>
    <path d="M241.63,5.25s-1.57-.23-2.47-.23-1.54,.24-1.54,1.07c0,.66,.34,.85,1.84,1.1,1.77,.3,2.43,.65,2.43,2.02,0,1.65-1.05,2.2-2.74,2.2-.9,0-2.49-.27-2.49-.27l.06-.92s1.61,.24,2.33,.24c1.16,0,1.78-.25,1.78-1.21,0-.74-.37-.92-1.91-1.16-1.6-.26-2.36-.55-2.36-1.97,0-1.55,1.26-2.06,2.54-2.06,1.06,0,2.56,.27,2.56,.27l-.03,.9Z" fill="#445156"/>
    <path d="M252.71,11.13c-.69,.14-1.77,.3-2.7,.3-2.92,0-3.58-1.78-3.58-5s.64-5.06,3.58-5.06c1,0,2.08,.18,2.7,.31l-.04,.92c-.64-.11-1.78-.26-2.54-.26-2.18,0-2.56,1.3-2.56,4.08s.35,4.03,2.59,4.03c.79,0,1.84-.13,2.52-.25l.04,.93Z" fill="#445156"/>
    <path d="M259.9,7.67c0,2.57-.64,3.76-3.02,3.76s-3.02-1.19-3.02-3.76c0-2.43,.79-3.59,3.02-3.59s3.02,1.16,3.02,3.59m-1.09,0c0-1.96-.42-2.67-1.94-2.67s-1.94,.71-1.94,2.67,.27,2.84,1.94,2.84,1.94-.83,1.94-2.84" fill="#445156"/>
    <rect x="261.71" y="1.14" width="1.06" height="10.15" fill="#445156"/>
    <rect x="264.97" y="1.14" width="1.06" height="10.15" fill="#445156"/>
    <path d="M273.37,10.37l.03,.83s-1.61,.23-2.76,.23c-2.11,0-2.8-1.23-2.8-3.63,0-2.69,1.16-3.72,2.95-3.72s2.84,.99,2.84,3.31l-.06,.81h-4.66c0,1.51,.47,2.3,1.85,2.3,1.06,0,2.6-.13,2.6-.13m-.79-3.02c0-1.75-.54-2.37-1.78-2.37s-1.88,.66-1.89,2.37h3.67Z" fill="#445156"/>
    <path d="M279.85,4.29l-.04,.86s-1.13-.13-1.67-.13c-1.62,0-2.06,.71-2.06,2.6,0,2.09,.32,2.85,2.08,2.85,.54,0,1.67-.13,1.67-.13l.04,.88s-1.31,.2-1.96,.2c-2.25,0-2.91-1.03-2.91-3.8,0-2.56,.83-3.55,2.94-3.55,.65,0,1.92,.21,1.92,.21" fill="#445156"/>
    <path d="M282.86,5.14v3.38c0,1.54,.1,1.98,1.02,1.98,.4,0,1.26-.08,1.26-.08l.07,.88s-.95,.16-1.44,.16c-1.46,0-1.95-.55-1.95-2.59v-3.72h-1v-.92h1V2.06h1.05v2.16h2.25v.92h-2.25Z" fill="#445156"/>
    <path d="M286.4,1.4h1.06v1.23h-1.06V1.4Zm0,2.83h1.06v7.07h-1.06V4.22Z" fill="#445156"/>
    <polygon points="289.97 4.22 291.62 10.37 292.14 10.37 293.85 4.22 294.94 4.22 292.95 11.29 290.83 11.29 288.84 4.22 289.97 4.22" fill="#445156"/>
    <path d="M296.29,1.4h1.06v1.23h-1.06V1.4Zm0,2.83h1.06v7.07h-1.06V4.22Z" fill="#445156"/>
    <path d="M300.8,5.14v3.38c0,1.54,.1,1.98,1.02,1.98,.4,0,1.26-.08,1.26-.08l.07,.88s-.95,.16-1.44,.16c-1.46,0-1.95-.55-1.95-2.59v-3.72h-1v-.92h1V2.06h1.05v2.16h2.25v.92h-2.25Z" fill="#445156"/>
    <path d="M309.56,10.37l.03,.83s-1.61,.23-2.76,.23c-2.11,0-2.8-1.23-2.8-3.63,0-2.69,1.16-3.72,2.95-3.72s2.84,.99,2.84,3.31l-.06,.81h-4.66c0,1.51,.47,2.3,1.85,2.3,1.06,0,2.6-.13,2.6-.13m-.79-3.02c0-1.75-.54-2.37-1.78-2.37s-1.88,.66-1.89,2.37h3.67Zm-.34-6.52l.37,.9-3.12,1.2-.3-.72,3.05-1.39Z" fill="#445156"/>
    <path d="M316.18,5.25s-1.57-.23-2.47-.23-1.54,.24-1.54,1.07c0,.66,.34,.85,1.84,1.1,1.77,.3,2.43,.65,2.43,2.02,0,1.65-1.05,2.2-2.74,2.2-.9,0-2.49-.27-2.49-.27l.06-.92s1.61,.24,2.33,.24c1.16,0,1.78-.25,1.78-1.21,0-.74-.37-.92-1.91-1.16-1.6-.26-2.36-.55-2.36-1.97,0-1.55,1.26-2.06,2.54-2.06,1.06,0,2.56,.27,2.56,.27l-.03,.9Z" fill="#445156"/>
    <polygon points="180.79 18.46 187.86 18.46 187.86 19.44 184.88 19.44 184.88 28.24 183.8 28.24 183.8 19.44 180.79 19.44 180.79 18.46" fill="#445156"/>
    <path d="M192.99,27.33l.03,.83s-1.61,.23-2.76,.23c-2.11,0-2.8-1.23-2.8-3.63,0-2.69,1.16-3.72,2.95-3.72s2.84,.99,2.84,3.31l-.06,.81h-4.66c0,1.51,.47,2.3,1.85,2.3,1.06,0,2.6-.13,2.6-.13m-.79-3.02c0-1.75-.54-2.37-1.78-2.37s-1.88,.66-1.89,2.37h3.67Z" fill="#445156"/>
    <path d="M194.91,21.18h1.05v.96s1.23-.85,2.59-1.12v1.07c-1.33,.27-2.57,.96-2.57,.96v5.19h-1.06v-7.07Z" fill="#445156"/>
    <path d="M199.8,21.18h1.05v.96s1.23-.85,2.59-1.12v1.07c-1.33,.27-2.57,.96-2.57,.96v5.19h-1.06v-7.07Z" fill="#445156"/>
    <path d="M204.68,18.35h1.06v1.23h-1.06v-1.23Zm0,2.83h1.06v7.07h-1.06v-7.07Z" fill="#445156"/>
    <path d="M209.19,22.1v3.38c0,1.54,.1,1.98,1.02,1.98,.4,0,1.26-.09,1.26-.09l.07,.88s-.95,.16-1.44,.16c-1.46,0-1.95-.55-1.95-2.59v-3.72h-1v-.92h1v-2.16h1.05v2.16h2.25v.92h-2.25Z" fill="#445156"/>
    <path d="M218.48,24.63c0,2.57-.64,3.76-3.03,3.76s-3.02-1.19-3.02-3.76c0-2.43,.79-3.59,3.02-3.59s3.03,1.16,3.03,3.59m-1.09,0c0-1.96-.42-2.67-1.94-2.67s-1.94,.71-1.94,2.67,.27,2.84,1.94,2.84,1.94-.83,1.94-2.84" fill="#445156"/>
    <path d="M220.2,21.18h1.05v.96s1.23-.85,2.59-1.12v1.07c-1.33,.27-2.57,.96-2.57,.96v5.19h-1.06v-7.07Z" fill="#445156"/>
    <path d="M225.09,18.35h1.06v1.23h-1.06v-1.23Zm0,2.83h1.06v7.07h-1.06v-7.07Z" fill="#445156"/>
    <path d="M233.17,26.93c.03,.41,.37,.57,.82,.62l-.04,.83c-.75,0-1.26-.14-1.68-.57,0,0-1.27,.57-2.54,.57s-1.99-.74-1.99-2.16,.71-1.95,2.16-2.09l2.22-.21v-.61c0-.99-.42-1.34-1.27-1.34-.99,0-2.67,.18-2.67,.18l-.04-.81s1.55-.31,2.77-.31c1.6,0,2.28,.73,2.28,2.28v3.62Zm-3.15-2.01c-.86,.09-1.2,.49-1.2,1.27,0,.82,.35,1.3,1.07,1.3,1.05,0,2.22-.44,2.22-.44v-2.33l-2.09,.2Z" fill="#445156"/>
    <rect x="235.34" y="18.1" width="1.06" height="10.15" fill="#445156"/>
    <path d="M243.74,27.33l.03,.83s-1.61,.23-2.75,.23c-2.11,0-2.8-1.23-2.8-3.63,0-2.69,1.16-3.72,2.95-3.72s2.84,.99,2.84,3.31l-.06,.81h-4.66c0,1.51,.47,2.3,1.85,2.3,1.06,0,2.6-.13,2.6-.13m-.79-3.02c0-1.75-.54-2.37-1.78-2.37s-1.88,.66-1.89,2.37h3.67Z" fill="#445156"/>
    <path d="M250.35,22.21s-1.57-.23-2.47-.23-1.54,.24-1.54,1.07c0,.66,.34,.85,1.84,1.1,1.77,.3,2.43,.65,2.43,2.02,0,1.65-1.05,2.2-2.74,2.2-.9,0-2.49-.27-2.49-.27l.06-.92s1.61,.24,2.33,.24c1.16,0,1.78-.25,1.78-1.21,0-.74-.37-.92-1.91-1.16-1.6-.25-2.36-.55-2.36-1.96,0-1.55,1.26-2.06,2.54-2.06,1.06,0,2.56,.27,2.56,.27l-.03,.9Z" fill="#445156"/>
    <path d="M255.34,21.18h1.05v.51s1.07-.65,2.12-.65c1.78,0,2.56,1.09,2.56,3.59,0,2.77-.9,3.76-3.08,3.76-.66,0-1.38-.11-1.58-.16v3.15h-1.06v-10.2Zm1.06,1.37v4.76c.18,.03,.92,.16,1.53,.16,1.55,0,2.06-.81,2.06-2.84s-.61-2.64-1.64-2.64c-.96,0-1.95,.57-1.95,.57" fill="#445156"/>
    <path d="M268.52,24.63c0,2.57-.64,3.76-3.02,3.76s-3.02-1.19-3.02-3.76c0-2.43,.79-3.59,3.02-3.59s3.02,1.16,3.02,3.59m-1.09,0c0-1.96-.42-2.67-1.94-2.67s-1.94,.71-1.94,2.67,.27,2.84,1.94,2.84,1.94-.83,1.94-2.84" fill="#445156"/>
    <path d="M275.71,21.18v7.07h-1.06v-.49s-1.06,.64-2.09,.64c-1.98,0-2.39-.92-2.39-3.52v-3.69h1.06v3.68c0,1.95,.17,2.59,1.48,2.59,1.05,0,1.94-.52,1.94-.52v-5.74h1.06Z" fill="#445156"/>
    <path d="M277.74,21.18h1.05v.96s1.23-.85,2.59-1.12v1.07c-1.33,.27-2.57,.96-2.57,.96v5.19h-1.06v-7.07Z" fill="#445156"/>
    <rect x="181.71" y="35.05" width="1.06" height="10.15" fill="#445156"/>
    <polygon points="185.24 35.19 186.36 35.19 185.46 38.29 184.62 38.29 185.24 35.19" fill="#445156"/>
    <polygon points="188.13 35.42 194.08 35.42 194.08 36.38 189.21 36.38 189.21 39.76 193.23 39.76 193.23 40.7 189.21 40.7 189.21 44.24 194.08 44.24 194.08 45.2 188.13 45.2 188.13 35.42" fill="#445156"/>
    <path d="M197.07,45.2h-1.06v-6.15h-.89v-.92h.89v-.64c0-2.03,.52-2.59,1.91-2.59,.48,0,1.43,.1,1.43,.1v.88s-.81-.03-1.23-.03c-.79,0-1.05,.34-1.05,1.65v.62h2.05v.92h-2.05v6.15Z" fill="#445156"/>
    <path d="M201.75,45.2h-1.06v-6.15h-.89v-.92h.89v-.64c0-2.03,.52-2.59,1.91-2.59,.48,0,1.43,.1,1.43,.1v.88s-.81-.03-1.23-.03c-.79,0-1.05,.34-1.05,1.65v.62h2.05v.92h-2.05v6.15Z" fill="#445156"/>
    <path d="M205.07,35.31h1.06v1.23h-1.06v-1.23Zm0,2.83h1.06v7.07h-1.06v-7.07Z" fill="#445156"/>
    <path d="M212.73,38.2l-.04,.86s-1.13-.13-1.67-.13c-1.62,0-2.06,.71-2.06,2.6,0,2.09,.33,2.85,2.08,2.85,.54,0,1.67-.13,1.67-.13l.04,.88s-1.31,.2-1.97,.2c-2.25,0-2.91-1.03-2.91-3.8,0-2.56,.83-3.55,2.94-3.55,.65,0,1.92,.21,1.92,.21" fill="#445156"/>
    <path d="M219.31,43.88c.03,.41,.37,.56,.82,.62l-.04,.83c-.75,0-1.26-.14-1.68-.57,0,0-1.27,.57-2.54,.57s-1.99-.73-1.99-2.16,.71-1.95,2.16-2.09l2.22-.21v-.61c0-.99-.42-1.34-1.27-1.34-.99,0-2.67,.18-2.67,.18l-.04-.81s1.55-.31,2.77-.31c1.6,0,2.28,.73,2.28,2.28v3.62Zm-3.15-2.01c-.86,.09-1.2,.49-1.2,1.27,0,.82,.35,1.3,1.07,1.3,1.05,0,2.22-.44,2.22-.44v-2.33l-2.09,.2Z" fill="#445156"/>
    <path d="M225.97,38.2l-.04,.86s-1.13-.13-1.67-.13c-1.62,0-2.06,.71-2.06,2.6,0,2.09,.33,2.85,2.08,2.85,.54,0,1.67-.13,1.67-.13l.04,.88s-1.31,.2-1.97,.2c-2.25,0-2.91-1.03-2.91-3.8,0-2.56,.83-3.55,2.94-3.55,.65,0,1.92,.21,1.92,.21" fill="#445156"/>
    <path d="M227.56,35.31h1.06v1.23h-1.06v-1.23Zm0,2.83h1.06v7.07h-1.06v-7.07Z" fill="#445156"/>
    <path d="M232.07,39.05v3.38c0,1.54,.1,1.98,1.02,1.98,.4,0,1.26-.09,1.26-.09l.07,.88s-.95,.16-1.44,.16c-1.46,0-1.95-.55-1.95-2.59v-3.72h-1v-.92h1v-2.16h1.05v2.16h2.25v.92h-2.25Z" fill="#445156"/>
    <path d="M240.83,44.28l.03,.83s-1.61,.23-2.75,.23c-2.11,0-2.8-1.23-2.8-3.63,0-2.69,1.16-3.72,2.95-3.72s2.84,.99,2.84,3.31l-.06,.81h-4.66c0,1.51,.47,2.3,1.85,2.3,1.06,0,2.6-.13,2.6-.13m-.79-3.02c0-1.75-.54-2.37-1.78-2.37s-1.88,.66-1.89,2.37h3.67Zm-.34-6.52l.37,.9-3.12,1.2-.3-.72,3.05-1.39Z" fill="#445156"/>
    <path d="M246.04,35.42h5.95v.96h-4.86v3.38h4.01v.95h-4.01v3.53h4.86v.96h-5.95v-9.78Zm4.34-3.38l.37,.93-3.1,1.23-.33-.75,3.05-1.41Z" fill="#445156"/>
    <path d="M253.67,45.2v-7.07h1.05v.49s1.14-.64,2.19-.64c1.95,0,2.39,.96,2.39,3.48v3.73h-1.05v-3.7c0-1.87-.21-2.56-1.53-2.56-1.02,0-1.99,.52-1.99,.52v5.74h-1.06Z" fill="#445156"/>
    <path d="M266.47,44.28l.03,.83s-1.61,.23-2.76,.23c-2.11,0-2.8-1.23-2.8-3.63,0-2.69,1.16-3.72,2.95-3.72s2.84,.99,2.84,3.31l-.06,.81h-4.66c0,1.51,.47,2.3,1.85,2.3,1.06,0,2.6-.13,2.6-.13m-.79-3.02c0-1.75-.54-2.37-1.78-2.37s-1.88,.66-1.89,2.37h3.67Z" fill="#445156"/>
    <path d="M268.39,38.13h1.05v.96s1.23-.85,2.59-1.12v1.07c-1.33,.27-2.57,.96-2.57,.96v5.19h-1.06v-7.07Z" fill="#445156"/>
    <path d="M272.87,46.39c0-.82,.38-1.2,1.12-1.75-.25-.17-.4-.54-.4-.97,0-.27,.48-1.12,.48-1.12-.59-.27-1.12-.83-1.12-2.13,0-1.74,1.07-2.42,2.64-2.42,.71,0,1.47,.18,1.47,.18l2.09-.06v.9l-1.34-.03c.27,.27,.47,.66,.47,1.41,0,1.84-.92,2.39-2.73,2.39-.14,0-.54-.03-.69-.06,0,0-.25,.62-.25,.8,0,.57,.11,.65,1.71,.65,2.01,0,2.73,.4,2.73,2.08s-1.14,2.25-3.14,2.25c-2.23,0-3.04-.49-3.04-2.13m1.84-1.33c-.59,.44-.79,.69-.79,1.24,0,.98,.41,1.33,2.01,1.33,1.41,0,2.05-.38,2.05-1.31,0-1.07-.45-1.19-1.74-1.19-.49,0-1.53-.07-1.53-.07m2.52-4.65c0-1.12-.44-1.55-1.63-1.55-1.1,0-1.58,.44-1.58,1.55s.48,1.54,1.58,1.54c1.19,0,1.63-.42,1.63-1.54" fill="#445156"/>
    <path d="M285.66,44.28l.03,.83s-1.61,.23-2.75,.23c-2.11,0-2.8-1.23-2.8-3.63,0-2.69,1.16-3.72,2.95-3.72s2.84,.99,2.84,3.31l-.06,.81h-4.66c0,1.51,.47,2.3,1.85,2.3,1.06,0,2.6-.13,2.6-.13m-.79-3.02c0-1.75-.54-2.37-1.78-2.37s-1.88,.66-1.89,2.37h3.67Zm-.34-6.52l.37,.9-3.12,1.2-.3-.72,3.05-1.39Z" fill="#445156"/>
    <path d="M288.95,39.05v3.38c0,1.54,.1,1.98,1.02,1.98,.4,0,1.26-.09,1.26-.09l.07,.88s-.95,.16-1.44,.16c-1.46,0-1.95-.55-1.95-2.59v-3.72h-1v-.92h1v-2.16h1.05v2.16h2.25v.92h-2.25Z" fill="#445156"/>
    <path d="M292.5,35.31h1.06v1.23h-1.06v-1.23Zm0,2.83h1.06v7.07h-1.06v-7.07Z" fill="#445156"/>
    <path d="M295.28,41.78c0-2.78,.85-3.79,3.34-3.79,.74,0,2.36,.14,2.36,.14v10.2h-1.05v-3.46s-.99,.47-1.99,.47c-1.92,0-2.66-1.06-2.66-3.56m1.07,0c0,1.77,.45,2.61,1.7,2.61,.98,0,1.88-.41,1.88-.41v-4.99s-.88-.08-1.3-.08c-1.85,0-2.28,.92-2.28,2.87" fill="#445156"/>
    <path d="M308.49,38.13v7.07h-1.06v-.49s-1.06,.64-2.09,.64c-1.98,0-2.39-.92-2.39-3.52v-3.69h1.06v3.67c0,1.95,.17,2.59,1.48,2.59,1.05,0,1.94-.52,1.94-.52v-5.74h1.06Z" fill="#445156"/>
    <path d="M315.74,44.28l.03,.83s-1.61,.23-2.76,.23c-2.11,0-2.8-1.23-2.8-3.63,0-2.69,1.16-3.72,2.95-3.72s2.84,.99,2.84,3.31l-.06,.81h-4.66c0,1.51,.47,2.3,1.85,2.3,1.06,0,2.6-.13,2.6-.13m-.79-3.02c0-1.75-.54-2.37-1.78-2.37s-1.88,.66-1.89,2.37h3.67Z" fill="#445156"/>
  </g>
  <g clip-path="url(#clippath-2)">
    <rect x="192.33" y=".78" width="33.94" height="45.4" transform="translate(-.31 2.97) rotate(-.81)" fill="url(#Dégradé_sans_nom_9)"/>
  </g>
  <g clip-path="url(#clippath-3)">
    <rect x="226.85" y=".94" width="11.31" height="45.07" transform="translate(-.31 3.3) rotate(-.81)" fill="url(#Dégradé_sans_nom_9-2)"/>
  </g>
  <g clip-path="url(#clippath-4)">
    <rect x="238.75" y=".79" width="33.57" height="45.39" transform="translate(-.31 3.63) rotate(-.81)" fill="url(#Dégradé_sans_nom_9-3)"/>
  </g>
  <g clip-path="url(#clippath-5)">
    <rect x="191.93" y=".57" width="22.66" height="34.1" transform="translate(-.57 8.85) rotate(-2.49)" fill="url(#Dégradé_sans_nom_9-4)"/>
  </g>
  <g clip-path="url(#clippath-6)">
    <rect x="250.35" y=".53" width="22.44" height="34.19" transform="translate(-.55 12.8) rotate(-2.8)" fill="url(#Dégradé_sans_nom_9-5)"/>
  </g>
  <g>
    <path d="M206.91,15.85c.88,0,4.11-.02,4.95-.1-.02,.1-.04,.33-.04,.43s.02,.3,.04,.4c-.68-.07-4.08-.08-4.95-.08v7.12h-1.53V9.57h7.35c-.02,.1-.03,.21-.03,.31s.01,.2,.03,.31c-.73-.07-5.16-.13-5.82-.13v5.81Z" fill="#fff"/>
    <path d="M224.81,9.58v14.29h-.27c-2.33-3.64-5.09-7.54-7.71-11.25v10.98h-.92V9.32h.38c2.5,3.6,5.84,8.5,7.71,11V9.58h.8Z" fill="#fff"/>
    <path d="M236.23,22.76c-.36,.41-1.56,1.18-3,1.18-3.05,0-5.27-2.72-5.27-7.42s2.22-7.42,5.42-7.42c1.24,0,2.35,.44,3.13,.95-.14,.37-.24,1.18-.3,1.62l-.09,.04c-.4-.64-1.39-1.84-2.74-1.84-2.27,0-4,2.05-4,6.66s1.73,6.66,4,6.66c1.37,0,2.38-1.12,2.93-1.72l.06,.08-.13,1.22Z" fill="#fff"/>
    <path d="M248.31,22.76c-.36,.41-1.56,1.18-3,1.18-3.05,0-5.27-2.72-5.27-7.42s2.22-7.42,5.42-7.42c1.24,0,2.35,.44,3.13,.95-.14,.37-.25,1.18-.3,1.62l-.09,.04c-.4-.64-1.39-1.84-2.74-1.84-2.27,0-4,2.05-4,6.66s1.73,6.66,4,6.66c1.37,0,2.38-1.12,2.93-1.72l.06,.08-.13,1.22Z" fill="#fff"/>
    <path d="M253.64,16.06v-5.67h1.81c1.22,0,2.78,.48,2.78,2.61,0,2.42-1.96,3.06-3.43,3.06h-1.16Zm0,.8h.64c1.54,1.77,3.93,5.51,4.65,6.74h2.12c-1.04-1.32-4.04-5.69-4.92-6.93,1.37-.2,3.68-1.26,3.68-3.88,0-2.42-1.7-3.21-3.73-3.21h-4.09v14.02h1.66v-6.74Z" fill="#fff"/>
  </g>
  <path d="M175.92,1.27h0c0-.68,.55-1.22,1.22-1.22s1.22,.55,1.22,1.22h0c0,.68-.55,1.22-1.22,1.22s-1.22-.55-1.22-1.22Zm0,5.85h0c0-.68,.55-1.22,1.22-1.22s1.22,.55,1.22,1.22h0c0,.68-.55,1.22-1.22,1.22s-1.22-.55-1.22-1.22Zm0,5.85h0c0-.68,.55-1.22,1.22-1.22s1.22,.55,1.22,1.22h0c0,.68-.55,1.22-1.22,1.22s-1.22-.55-1.22-1.22Zm0,5.85h0c0-.68,.55-1.22,1.22-1.22s1.22,.55,1.22,1.22h0c0,.68-.55,1.22-1.22,1.22s-1.22-.55-1.22-1.22Zm0,5.85h0c0-.68,.55-1.22,1.22-1.22s1.22,.55,1.22,1.22h0c0,.68-.55,1.22-1.22,1.22s-1.22-.55-1.22-1.22Zm0,5.85h0c0-.68,.55-1.22,1.22-1.22s1.22,.55,1.22,1.22h0c0,.68-.55,1.22-1.22,1.22s-1.22-.55-1.22-1.22Zm0,5.85h0c0-.68,.55-1.22,1.22-1.22s1.22,.55,1.22,1.22h0c0,.68-.55,1.22-1.22,1.22s-1.22-.55-1.22-1.22Zm0,5.85h0c0-.68,.55-1.22,1.22-1.22s1.22,.55,1.22,1.22h0c0,.68-.55,1.22-1.22,1.22s-1.22-.55-1.22-1.22Zm0,5.85h0c0-.68,.55-1.22,1.22-1.22s1.22,.55,1.22,1.22h0c0,.68-.55,1.22-1.22,1.22s-1.22-.55-1.22-1.22Z" fill="url(#Dégradé_sans_nom_13)"/>
</svg>