<?xml version="1.0" encoding="UTF-8"?>
<svg width="96px" height="60px" viewBox="0 0 96 60" version="1.1" xmlns="http://www.w3.org/2000/svg" xmlns:xlink="http://www.w3.org/1999/xlink">
    <title>Typogramme_centre</title>
    <defs>
        <polygon id="path-1" points="1.3107091 0.175507692 9.8339055 0.175507692 9.8339055 14.1096103 1.3107091 14.1096103"></polygon>
        <polygon id="path-3" points="0 60.4102564 95.9284089 60.4102564 95.9284089 1.55635897 0 1.55635897"></polygon>
    </defs>
    <g id="Symbols" stroke="none" stroke-width="1" fill="none" fill-rule="evenodd">
        <g id="Header/Desktop" transform="translate(-75.000000, -35.000000)">
            <g id="Group-37" transform="translate(75.000000, 34.000000)">
                <path d="M50.4115204,3.83795897 L56.5465509,3.83795897 L56.5465509,1.59006154 L50.4115204,1.59006154 L50.4115204,3.83795897 Z M48.637017,5.58826667 L48.637017,20.8831897 L58.4087432,20.8831897 L58.4087432,18.1726769 L51.6184378,18.1726769 L51.6184378,14.5051385 L57.5573642,14.5051385 L57.5573642,11.7930359 L51.6184378,11.7930359 L51.6184378,8.29877949 L58.3226487,8.29877949 L58.3226487,5.58826667 L48.637017,5.58826667 Z" id="Fill-1" fill="#1D1D1B"></path>
                <polygon id="Fill-2" fill="#1D1D1B" points="12.5267502 5.60114359 7.38977821 13.4481179 2.25121183 5.60114359 0 5.60114359 0 20.8595026 2.97504339 20.8595026 2.97504339 11.8138615 7.36745741 18.3747333 7.412099 18.3747333 11.804513 11.8138615 11.804513 20.8595026 14.7763677 20.8595026 14.7763677 5.60114359"></polygon>
                <g id="Group-36" transform="translate(0.000000, 0.033703)">
                    <path d="M18.7045092,15.0715641 L18.7045092,5.56648718 L21.6779582,5.56648718 L21.6779582,15.1796667 C21.6779582,17.2940256 23.012423,18.3178205 24.7598226,18.3178205 C26.5088165,18.3178205 27.8416869,17.2940256 27.8416869,15.1796667 L27.8416869,5.56648718 L30.815136,5.56648718 L30.815136,15.0715641 C30.815136,19.2780256 28.1924423,21.0442308 24.7598226,21.0442308 C21.3287972,21.0442308 18.7045092,19.2780256 18.7045092,15.0715641" id="Fill-3" fill="#1D1D1B"></path>
                    <path d="M34.0594638,18.4931692 L35.8068634,16.2277846 C36.7252048,17.1864 38.3004153,18.3405538 39.8963523,18.3405538 C41.2292228,18.3405538 42.1475641,17.5997333 42.1475641,16.5966051 C42.1475641,15.5950667 40.9454298,15.0942974 39.39254,14.5919385 L38.582614,14.3296308 C37.0759601,13.8511179 34.5840026,12.8686564 34.5840026,9.92604103 C34.5840026,7.15988718 36.6375159,5.35075897 39.7002482,5.35075897 C41.7760823,5.35075897 43.3927457,6.11224615 44.6172009,7.18214359 L42.868207,9.44752821 C42.1252433,8.75122051 41.0331186,8.05173333 39.7002482,8.05173333 C38.2780945,8.05173333 37.3804796,8.8164 37.3804796,9.81793846 C37.3804796,10.8862462 38.5172459,11.3218359 39.8086635,11.736759 L40.6169952,11.9974769 C42.7821125,12.6953744 45.0333243,13.720759 45.0333243,16.5314256 C45.0333243,19.3214256 42.9128486,21.0431179 39.9170788,21.0431179 C37.2943851,21.0431179 35.1962302,19.6918359 34.0594638,18.4931692" id="Fill-5" fill="#1D1D1B"></path>
                    <path d="M62.3161581,15.0715641 L62.3161581,5.56648718 L65.2880129,5.56648718 L65.2880129,15.1796667 C65.2880129,17.2940256 66.6208833,18.3178205 68.3714716,18.3178205 C70.1204654,18.3178205 71.4517416,17.2940256 71.4517416,15.1796667 L71.4517416,5.56648718 L74.426785,5.56648718 L74.426785,15.0715641 C74.426785,19.2780256 71.8024969,21.0442308 68.3714716,21.0442308 C64.9404462,21.0442308 62.3161581,19.2780256 62.3161581,15.0715641" id="Fill-7" fill="#1D1D1B"></path>
                    <polygon id="Fill-9" fill="#1D1D1B" points="78.5631475 5.56807692 80.8143594 5.56807692 85.9513314 13.4150513 91.0883034 5.56807692 93.3411096 5.56807692 93.3411096 20.8248462 90.3676606 20.8248462 90.3676606 11.7792051 85.9720579 18.3416667 85.9290106 18.3416667 81.5350023 11.7792051 81.5350023 20.8248462 78.5631475 20.8248462"></polygon>
                    <polygon id="Fill-11" fill="#1D1D1B" points="9.49813693 46.2780718 9.49813693 57.4253538 1.55512183 46.2780718 0.05643973 46.2780718 0.05643973 60.2121744 1.65397107 60.2121744 1.65397107 49.0648923 9.59858052 60.2121744 11.0956683 60.2121744 11.0956683 46.2780718"></polygon>
                    <path d="M18.9202237,46.2780718 L12.9908634,60.2121744 L14.7286969,60.2121744 L16.2640489,56.5271487 L22.9523163,56.5271487 L24.4892626,60.2121744 L26.2462282,60.2121744 L20.3168679,46.2780718 L18.9202237,46.2780718 Z M19.5978194,48.5259692 L19.6376779,48.5259692 L22.3544378,55.0550462 L16.8842482,55.0550462 L19.5978194,48.5259692 Z" id="Fill-13" fill="#1D1D1B"></path>
                    <polygon id="Fill-15" fill="#1D1D1B" points="24.6522044 46.2780718 24.6522044 47.770841 29.2040527 47.770841 29.2040527 60.2121744 30.7999897 60.2121744 30.7999897 47.770841 35.3534323 47.770841 35.3534323 46.2780718"></polygon>
                    <path d="M37.0783517,55.136441 L37.0783517,46.2799795 L38.675883,46.2799795 L38.675883,55.1730051 C38.675883,57.6037231 40.0725272,58.9391077 42.2886635,58.9391077 C44.5239319,58.9391077 45.9221704,57.6037231 45.9221704,55.1730051 L45.9221704,46.2799795 L47.5181074,46.2799795 L47.5181074,55.136441 C47.5181074,58.9391077 45.1218104,60.4096205 42.2886635,60.4096205 C39.4730543,60.4096205 37.0783517,58.9391077 37.0783517,55.136441" id="Fill-17" fill="#1D1D1B"></path>
                    <path d="M59.5136226,60.2115385 L55.1626615,54.5790769 L52.2880617,54.5790769 L52.2880617,60.2115385 L50.6905304,60.2115385 L50.6905304,46.2774359 L55.4815301,46.2774359 C58.4167149,46.2774359 60.1513597,47.8894359 60.1513597,50.3980513 C60.1513597,52.2898462 59.1533012,53.8811795 57.0583349,54.3994359 L61.5687303,60.2115385 L59.5136226,60.2115385 Z M52.2880617,53.1053846 L55.4608036,53.1053846 C57.817242,53.1053846 58.5362906,51.832 58.5362906,50.4377949 C58.5362906,49.0451795 57.817242,47.7511282 55.4608036,47.7511282 L52.2880617,47.7511282 L52.2880617,53.1053846 Z" id="Fill-19" fill="#1D1D1B"></path>
                    <polygon id="Fill-21" fill="#1D1D1B" points="63.058803 46.2780718 63.058803 60.2121744 71.5821588 60.2121744 71.5821588 58.7384821 64.6563343 58.7384821 64.6563343 53.8818154 70.8631103 53.8818154 70.8631103 52.4081231 64.6563343 52.4081231 64.6563343 47.7517641 71.5630267 47.7517641 71.5630267 46.2780718"></polygon>
                    <path d="M79.128342,46.2780718 L79.128342,55.4349949 L84.9572588,55.4349949 L84.9572588,54.0217128 L80.6445619,54.0217128 L80.6445619,46.2780718 L79.128342,46.2780718 Z M74.4377859,46.2780718 L74.4377859,60.2121744 L84.9572588,60.2121744 L84.9572588,58.7384821 L76.0337229,58.7384821 L76.0337229,46.2780718 L74.4377859,46.2780718 Z" id="Fill-23" fill="#1D1D1B"></path>
                    <g id="Group-27" transform="translate(86.094503, 46.102564)">
                        <mask id="mask-2" fill="white">
                            <use xlink:href="#path-1"></use>
                        </mask>
                        <g id="Clip-26"></g>
                        <polygon id="Fill-25" fill="#1D1D1B" mask="url(#mask-2)" points="1.3107091 0.175507692 1.3107091 14.1096103 9.83406493 14.1096103 9.83406493 12.6359179 2.90824044 12.6359179 2.90824044 7.77925128 9.11661074 7.77925128 9.11661074 6.30555897 2.90824044 6.30555897 2.90824044 1.6492 9.81493282 1.6492 9.81493282 0.175507692"></polygon>
                    </g>
                    <polygon id="Fill-28" fill="#1D1D1B" points="13.2979338 26.8874923 14.7854555 26.8874923 22.6742629 37.9568769 22.6742629 26.8874923 24.2606339 26.8874923 24.2606339 40.7230308 22.7731122 40.7230308 14.8843047 29.6552359 14.8843047 40.7230308 13.2979338 40.7230308"></polygon>
                    <path d="M29.0599241,33.3116462 L28.2085452,35.1907231 L26.6811649,35.1907231 L30.5283137,26.8874923 L31.6172498,26.8874923 L35.4628042,35.1907231 L33.9561504,35.1907231 L33.1047715,33.3116462 L29.0599241,33.3116462 Z M29.7375198,40.6848769 L39.4901138,40.6848769 L39.4901138,39.3018 L29.7375198,39.3018 L29.7375198,40.6848769 Z M29.654614,31.9873897 L32.4893552,31.9873897 L31.083145,28.8842103 L31.0624185,28.8842103 L29.654614,31.9873897 Z M43.0024507,33.8648769 L43.0024507,35.1907231 L37.3728267,35.1907231 L37.3728267,26.8874923 L38.7997634,26.8874923 L38.7997634,33.8648769 L43.0024507,33.8648769 Z" id="Fill-30" fill="#1D1D1B"></path>
                    <polygon id="Fill-32" fill="#1D1D1B" points="48.759622 26.8874923 50.3443986 26.8874923 50.3443986 32.9762103 57.879262 32.9762103 57.879262 26.8874923 59.4640386 26.8874923 59.4640386 40.7230308 57.879262 40.7230308 57.879262 34.4578513 50.3443986 34.4578513 50.3443986 40.7230308 48.759622 40.7230308"></polygon>
                    <mask id="mask-4" fill="white">
                        <use xlink:href="#path-3"></use>
                    </mask>
                    <g id="Clip-35"></g>
                    <path d="M63.3256959,35.1905641 L64.7542269,35.1905641 L64.7542269,26.8889231 L63.3256959,26.8889231 L63.3256959,35.1905641 Z M65.796927,40.6847179 L75.5495211,40.6847179 L75.5495211,39.301641 L65.796927,39.301641 L65.796927,40.6847179 Z M67.2956091,34.1031795 L68.1087239,32.9553846 C68.644423,33.4307179 69.5946512,33.9839487 70.5464738,33.9839487 C71.4377113,33.9839487 72.0722597,33.5881026 72.0722597,32.915641 C72.0722597,32.1048718 71.2400129,31.9077436 70.5082096,31.6915385 L69.8130762,31.4944103 C68.8421215,31.2162051 67.5538926,30.8616923 67.5538926,29.2194872 C67.5538926,27.7171795 68.6635551,26.7696923 70.3870395,26.7696923 C71.5971456,26.7696923 72.6079589,27.2036923 73.1643844,27.5804615 L72.469251,28.8045641 C71.9542784,28.4691282 71.1411636,28.0939487 70.2881903,28.0939487 C69.4559434,28.0939487 68.8819801,28.4500513 68.8819801,29.1415897 C68.8819801,29.8522051 69.4368113,29.9714359 70.3280489,30.2289744 L70.9641916,30.4054359 C71.9351463,30.683641 73.422668,31.0588205 73.422668,32.8186667 C73.422668,34.3988718 72.231694,35.3082051 70.4874831,35.3082051 C69.100405,35.3082051 67.9285632,34.6754872 67.2956091,34.1031795 L67.2956091,34.1031795 Z M77.6110061,28.2131795 L74.8145291,28.2131795 L74.8145291,26.8889231 L81.8105047,26.8889231 L81.8105047,28.2131795 L79.0379428,28.2131795 L79.0379428,35.1889744 L77.6110061,35.1889744 L77.6110061,28.2131795 Z" id="Fill-34" fill="#1D1D1B" mask="url(#mask-4)"></path>
                </g>
            </g>
        </g>
    </g>
</svg>