<svg viewBox="0 0 109 48" width="73" height="32" fill="none" xmlns="http://www.w3.org/2000/svg" role="img" aria-label="Mon Espace Collectivité" style="flex-shrink: 0;"><path d="M20.45 4.81234C21.2391 4.35678 22.2112 4.35678 23.0003 4.81234L37.7045 13.3018C38.4935 13.7574 38.9796 14.5993 38.9796 15.5104V32.4894C38.9796 33.4005 38.4935 34.2424 37.7045 34.6979L23.0003 43.1874C22.2112 43.643 21.2391 43.643 20.45 43.1874L5.74582 34.6979C4.95678 34.2424 4.4707 33.4005 4.4707 32.4894V15.5104C4.4707 14.5993 4.95678 13.7574 5.74582 13.3018L20.45 4.81234Z" fill="url(#paint0_linear_474_555)"></path><path d="M32.8696 17.0061C29.2828 17.0061 22.0426 18.3816 21.7764 23.8839C25.4741 23.8099 32.8696 22.3308 32.8696 17.0061Z" fill="url(#paint1_linear_474_555)"></path><path fill-rule="evenodd" clip-rule="evenodd" d="M9.19358 16.8149C9.37653 16.496 9.78331 16.3859 10.1021 16.5688L21.1338 22.8988C21.3102 21.7868 21.7559 20.8586 22.3967 20.0902C23.2275 19.0939 24.3561 18.4015 25.5562 17.901C27.5124 17.085 29.8035 16.7275 31.5628 16.453C31.9382 16.3944 32.2895 16.3396 32.608 16.2849C33.1465 16.1925 33.6716 16.6143 33.637 17.2007C33.4989 19.5428 31.8078 21.4172 29.6014 22.6751C27.5557 23.8414 24.9604 24.5473 22.381 24.6519V32.2881C22.381 32.6557 22.083 32.9537 21.7154 32.9537C21.3478 32.9537 21.0498 32.6557 21.0498 32.2881V24.3853L9.43963 17.7234C9.12079 17.5405 9.01063 17.1337 9.19358 16.8149ZM22.4196 23.3178C24.774 23.2082 27.1213 22.5568 28.9421 21.5187C30.7304 20.4991 31.914 19.1697 32.2299 17.6963C32.0597 17.7235 31.8856 17.7508 31.7081 17.7787C29.9477 18.0548 27.86 18.3824 26.0687 19.1295C24.986 19.5812 24.066 20.1669 23.419 20.9427C22.8982 21.5673 22.5344 22.3381 22.4196 23.3178ZM37.0389 14.4547L22.3347 5.96519C21.9575 5.74742 21.4928 5.74742 21.1156 5.96519L6.41142 14.4547C6.03424 14.6724 5.80189 15.0749 5.80189 15.5104V32.4894C5.80189 32.9249 6.03424 33.3273 6.41142 33.5451L21.1156 42.0346C21.4928 42.2523 21.9575 42.2523 22.3347 42.0346L37.0389 33.5451C37.4161 33.3273 37.6484 32.9249 37.6484 32.4894V15.5104C37.6484 15.0749 37.4161 14.6724 37.0389 14.4547ZM23.0003 4.81234C22.2112 4.35678 21.2391 4.35678 20.45 4.81234L5.74582 13.3018C4.95678 13.7574 4.4707 14.5993 4.4707 15.5104V32.4894C4.4707 33.4005 4.95678 34.2424 5.74582 34.6979L20.45 43.1874C21.2391 43.643 22.2112 43.643 23.0003 43.1874L37.7045 34.6979C38.4935 34.2424 38.9796 33.4005 38.9796 32.4894V15.5104C38.9796 14.5993 38.4935 13.7574 37.7045 13.3018L23.0003 4.81234Z" fill="#000091"></path><path d="M48.5416 12.9822V5.69759H50.8159L52.2425 8.29922L53.6795 5.69759H55.9538V12.9822H54.1136V8.29922L52.8731 10.4846H51.6223L50.3818 8.29922V12.9822H48.5416Z" fill="var(--text-label-grey)"></path><path d="M60.2352 7.52914C61.9305 7.52914 63.0677 8.80914 63.0677 10.3597C63.0677 11.9103 61.9305 13.1903 60.2352 13.1903C58.5501 13.1903 57.4026 11.9103 57.4026 10.3597C57.4026 8.80914 58.5501 7.52914 60.2352 7.52914ZM60.2455 12.1809C61.2276 12.1809 61.9512 11.3587 61.9512 10.3597C61.9512 9.33987 61.2276 8.53857 60.2455 8.53857C59.2427 8.53857 58.5191 9.35028 58.5191 10.3597C58.5191 11.3691 59.2427 12.1809 60.2455 12.1809Z" fill="var(--text-label-grey)"></path><path d="M64.3983 12.9822V7.73727H65.4631V8.24719C65.8559 7.83093 66.3728 7.52914 67.1171 7.52914C68.2646 7.52914 69.1433 8.30963 69.1433 9.82898V12.9822H68.0682V9.87061C68.0682 9.03808 67.6133 8.53857 66.869 8.53857C66.1557 8.53857 65.7319 8.98605 65.4631 9.44394V12.9822H64.3983Z" fill="var(--text-label-grey)"></path><path d="M48.5416 27.5381V20.2535H53.0075V21.7833H50.3818V23.0633H52.594V24.5931H50.3818V26.0083H53.0075V27.5381H48.5416Z" fill="var(--text-label-grey)"></path><path d="M54.0687 26.7992L54.8027 26.154C55.1439 26.5911 55.5574 26.8721 56.0743 26.8721C56.5808 26.8721 56.8599 26.5599 56.8599 26.1644C56.8599 25.103 54.3065 25.488 54.3065 23.6357C54.3065 22.7719 55.0301 22.0851 56.0743 22.0851C56.8392 22.0851 57.5112 22.4597 57.8833 22.9592L57.1597 23.594C56.8806 23.2194 56.5188 22.9592 56.0846 22.9592C55.5884 22.9592 55.3403 23.2506 55.3403 23.6044C55.3403 24.6555 57.8937 24.3017 57.8937 26.102C57.8833 27.1322 57.0563 27.7462 56.0846 27.7462C55.2059 27.7462 54.5546 27.3924 54.0687 26.7992Z" fill="var(--text-label-grey)"></path><path d="M59.2295 30.0981V22.2932H60.2943V22.8344C60.7388 22.3557 61.297 22.0851 62.0517 22.0851C63.685 22.0851 64.7085 23.3859 64.7085 24.9157C64.7085 26.4454 63.685 27.7462 62.0517 27.7462C61.297 27.7462 60.7388 27.4757 60.2943 26.997V30.0981H59.2295ZM61.9173 23.0945C61.235 23.0945 60.6664 23.4171 60.2943 23.9895V25.8418C60.6768 26.4246 61.2453 26.7368 61.9173 26.7368C62.92 26.7368 63.592 25.9459 63.592 24.9157C63.592 23.8854 62.92 23.0945 61.9173 23.0945Z" fill="var(--text-label-grey)"></path><path d="M67.3597 27.6942C66.3259 27.6942 65.6229 27.101 65.6229 26.1748C65.6229 25.384 66.2329 24.8116 67.339 24.6243L69.024 24.3433V24.0727C69.024 23.4275 68.5485 23.0321 67.8766 23.0321C67.308 23.0321 66.8635 23.2922 66.5637 23.7189L65.7677 23.1049C66.2329 22.4805 66.9772 22.0851 67.9076 22.0851C69.3135 22.0851 70.0888 22.9176 70.0888 24.0727V27.5381H69.024V26.9449C68.6519 27.4028 68.0006 27.6942 67.3597 27.6942ZM66.6981 26.1332C66.6981 26.5391 67.0185 26.8201 67.5561 26.8201C68.2074 26.8201 68.7139 26.5079 69.024 26.0083V25.103L67.6181 25.3423C66.9668 25.4568 66.6981 25.7378 66.6981 26.1332Z" fill="var(--text-label-grey)"></path><path d="M74.1975 26.7368C74.7868 26.7368 75.2623 26.4454 75.5518 26.0396L76.3891 26.6848C75.9136 27.33 75.1486 27.7462 74.1872 27.7462C72.4401 27.7462 71.3444 26.4454 71.3444 24.9157C71.3444 23.3859 72.4401 22.0851 74.1872 22.0851C75.1383 22.0851 75.9136 22.5013 76.3891 23.1465L75.5518 23.7918C75.2623 23.3859 74.7868 23.0945 74.1872 23.0945C73.1845 23.0945 72.4608 23.8854 72.4608 24.9157C72.4608 25.9563 73.1845 26.7368 74.1975 26.7368Z" fill="var(--text-label-grey)"></path><path d="M82.0039 26.6848C81.518 27.3404 80.722 27.7462 79.7502 27.7462C77.9515 27.7462 76.8867 26.4454 76.8867 24.9157C76.8867 23.3443 77.8791 22.0851 79.5332 22.0851C80.9701 22.0851 81.9005 23.0737 81.9005 24.4057C81.9005 24.6451 81.8695 24.8844 81.8281 25.0405H77.9825C78.0549 26.1853 78.7475 26.7784 79.7502 26.7784C80.3808 26.7784 80.9081 26.4975 81.2285 26.0604L82.0039 26.6848ZM79.5125 22.98C78.7372 22.98 78.1996 23.4275 78.0342 24.2392H80.8357C80.815 23.5836 80.3498 22.98 79.5125 22.98Z" fill="var(--text-label-grey)"></path><path d="M51.798 40.5643C52.5113 40.5643 53.0695 40.2105 53.4107 39.711L54.8683 40.8245C54.1963 41.7194 53.1212 42.3022 51.798 42.3022C49.4927 42.3022 47.9214 40.5331 47.9214 38.4518C47.9214 36.3705 49.4927 34.6013 51.798 34.6013C53.1212 34.6013 54.1963 35.1841 54.8683 36.0687L53.4107 37.1926C53.0695 36.6931 52.5216 36.3392 51.798 36.3392C50.6402 36.3392 49.8132 37.2342 49.8132 38.4518C49.8132 39.6797 50.6402 40.5643 51.798 40.5643Z" fill="var(--text-label-grey)"></path><path d="M58.3372 36.641C60.0326 36.641 61.1697 37.921 61.1697 39.4716C61.1697 41.0222 60.0326 42.3022 58.3372 42.3022C56.6522 42.3022 55.5047 41.0222 55.5047 39.4716C55.5047 37.921 56.6522 36.641 58.3372 36.641ZM58.3476 41.2927C59.3296 41.2927 60.0533 40.4706 60.0533 39.4716C60.0533 38.4518 59.3296 37.6505 58.3476 37.6505C57.3448 37.6505 56.6212 38.4622 56.6212 39.4716C56.6212 40.481 57.3448 41.2927 58.3476 41.2927Z" fill="var(--text-label-grey)"></path><path d="M62.5004 42.0941V34.2892H63.5652V42.0941H62.5004Z" fill="var(--text-label-grey)"></path><path d="M65.3069 42.0941V34.2892H66.3717V42.0941H65.3069Z" fill="var(--text-label-grey)"></path><path d="M72.8171 41.2407C72.3312 41.8963 71.5352 42.3022 70.5635 42.3022C68.7647 42.3022 67.6999 41.0014 67.6999 39.4716C67.6999 37.9002 68.6923 36.641 70.3464 36.641C71.7833 36.641 72.7137 37.6296 72.7137 38.9617C72.7137 39.201 72.6827 39.4404 72.6413 39.5965H68.7957C68.8681 40.7412 69.5607 41.3344 70.5635 41.3344C71.1941 41.3344 71.7213 41.0534 72.0417 40.6163L72.8171 41.2407ZM70.3257 37.536C69.5504 37.536 69.0128 37.9835 68.8474 38.7952H71.6489C71.6282 38.1396 71.163 37.536 70.3257 37.536Z" fill="var(--text-label-grey)"></path><path d="M76.5195 41.2927C77.1087 41.2927 77.5843 41.0014 77.8737 40.5955L78.7111 41.2407C78.2355 41.8859 77.4706 42.3022 76.5091 42.3022C74.7621 42.3022 73.6663 41.0014 73.6663 39.4716C73.6663 37.9418 74.7621 36.641 76.5091 36.641C77.4602 36.641 78.2355 37.0573 78.7111 37.7025L77.8737 38.3477C77.5843 37.9418 77.1087 37.6505 76.5091 37.6505C75.5064 37.6505 74.7828 38.4414 74.7828 39.4716C74.7828 40.5123 75.5064 41.2927 76.5195 41.2927Z" fill="var(--text-label-grey)"></path><path d="M80.1443 40.2729V37.817H79.1622V36.8492H80.1443V35.5379H81.2194V36.8492H82.9458V37.817H81.2194V40.2729C81.2194 40.9806 81.5916 41.2095 82.1705 41.2095C82.522 41.2095 82.7597 41.1679 82.9458 41.095V42.042C82.6977 42.1461 82.4082 42.1981 82.0051 42.1981C80.7852 42.1981 80.1443 41.5529 80.1443 40.2729Z" fill="var(--text-label-grey)"></path><path d="M84.7531 35.6836C84.3603 35.6836 84.0295 35.3506 84.0295 34.9552C84.0295 34.5597 84.3603 34.2267 84.7531 34.2267C85.1459 34.2267 85.4767 34.5597 85.4767 34.9552C85.4767 35.3506 85.1459 35.6836 84.7531 35.6836ZM84.2155 42.0941V36.8492H85.2803V42.0941H84.2155Z" fill="var(--text-label-grey)"></path><path d="M86.2571 36.8492H87.4046L88.9345 40.9285L90.4542 36.8492H91.612L89.6375 42.0941H88.2212L86.2571 36.8492Z" fill="var(--text-label-grey)"></path><path d="M93.1121 35.6836C92.7192 35.6836 92.3884 35.3506 92.3884 34.9552C92.3884 34.5597 92.7192 34.2267 93.1121 34.2267C93.5049 34.2267 93.8357 34.5597 93.8357 34.9552C93.8357 35.3506 93.5049 35.6836 93.1121 35.6836ZM92.5745 42.0941V36.8492H93.6393V42.0941H92.5745Z" fill="var(--text-label-grey)"></path><path d="M95.6912 40.2729V37.817H94.7091V36.8492H95.6912V35.5379H96.7663V36.8492H98.4927V37.817H96.7663V40.2729C96.7663 40.9806 97.1384 41.2095 97.7174 41.2095C98.0688 41.2095 98.3066 41.1679 98.4927 41.095V42.042C98.2446 42.1461 97.9551 42.1981 97.5519 42.1981C96.3321 42.1981 95.6912 41.5529 95.6912 40.2729Z" fill="var(--text-label-grey)"></path><path d="M102.473 36.0166H101.44L102.515 34.2892H103.693L102.473 36.0166ZM104.365 41.2407C103.879 41.8963 103.083 42.3022 102.112 42.3022C100.313 42.3022 99.248 41.0014 99.248 39.4716C99.248 37.9002 100.24 36.641 101.894 36.641C103.331 36.641 104.262 37.6296 104.262 38.9617C104.262 39.201 104.231 39.4404 104.189 39.5965H100.344C100.416 40.7412 101.109 41.3344 102.112 41.3344C102.742 41.3344 103.269 41.0534 103.59 40.6163L104.365 41.2407ZM101.874 37.536C101.098 37.536 100.561 37.9835 100.395 38.7952H103.197C103.176 38.1396 102.711 37.536 101.874 37.536Z" fill="var(--text-label-grey)"></path><defs><linearGradient id="paint0_linear_474_555" x1="5.68736" y1="23.9372" x2="37.9842" y2="24.8221" gradientUnits="userSpaceOnUse"><stop stop-color="#E3E3FD"></stop><stop offset="1" stop-color="#FEE7FC"></stop></linearGradient><linearGradient id="paint1_linear_474_555" x1="33.5352" y1="17.117" x2="21.7764" y2="20.9996" gradientUnits="userSpaceOnUse"><stop offset="0.265" stop-color="#108473"></stop><stop offset="0.68" stop-color="#FFCB08"></stop></linearGradient></defs></svg>