<?xml version="1.0" standalone="no"?>
<!DOCTYPE svg PUBLIC "-//W3C//DTD SVG 1.1//EN" "http://www.w3.org/Graphics/SVG/1.1/DTD/svg11.dtd">
<svg xmlns="http://www.w3.org/2000/svg" width="140" height="40" viewBox="0 0 140 40" fill="none">
  <path d="M47.5996 10.9724H38.6384C39.8319 6.83021 43.7172 7.71897 43.7172 7.71897C47.5996 8.15928 47.5996 10.9724 47.5996 10.9724ZM54.7692 15.3673C54.7692 15.3673 56.86 3.38657 43.8681 2.35103C43.8681 2.35103 29.9817 0.684932 30.4289 16.1066C30.4289 16.1066 33.266 32.5257 51.7812 25.4264L50.5877 20.545C50.5877 20.545 37.8948 23.0591 37.4476 15.3673H54.7692ZM19.2287 12.0758C19.2287 19.4714 10.2702 17.9928 10.2702 17.9928V6.15616C19.6759 5.41959 19.2287 12.0758 19.2287 12.0758ZM55.9628 34.7055L53.2738 28.7885C34.7559 37.6626 28.9335 29.0847 27.8881 28.196C26.8427 27.3072 21.4676 20.8004 21.4676 20.8004C26.6946 19.0256 25.9483 12.2226 25.9483 12.2226C25.7974 0.538163 13.2554 0.684933 13.2554 0.684933H3.10059V37.369L9.96834 37.0728V24.3528H13.999C16.987 24.6491 25.4983 34.7055 25.4983 34.7055C34.7586 44.1748 55.9628 34.7055 55.9628 34.7055ZM77.466 25.8314H85.231V2.1635H77.466V25.8314ZM61.3379 38.9128H85.8264V31.5173H69.2538V2.37821H61.3406V38.9128H61.3379ZM108.386 10.9724H99.4274C100.621 6.83021 104.506 7.71897 104.506 7.71897C108.386 8.15928 108.386 10.9724 108.386 10.9724ZM115.556 15.3673C115.556 15.3673 117.646 3.38657 104.654 2.35103C104.654 2.35103 90.768 0.684932 91.2152 16.1066C91.2152 16.1066 92.3978 31.3026 112.57 25.4264L111.377 20.545C111.377 20.545 98.6838 23.0591 98.2366 15.3673H115.556ZM92.3978 38.9128H116.291V32.6996H92.3978V38.9128ZM136.9 6.96339V1.04642C121.968 0.157652 122.563 14.6552 122.563 14.6552H119.279V21.7544H123.013V38.9128H130.331V21.4582H136.603V14.3589H130.63C130.627 7.99892 136.9 6.96339 136.9 6.96339Z" fill="#0D2031"/>
</svg>